<?xml version="1.0" encoding="UTF-8"?>
<svg xmlns="http://www.w3.org/2000/svg" version="1.1" viewBox="0 0 125.348 161.348">
  <!-- Generator: Adobe Illustrator 29.7.1, SVG Export Plug-In . SVG Version: 2.1.1 Build 8)  -->
  <defs>
    <style>
      .st0, .st1 {
        fill: #232d4b;
      }

      .st1, .st2 {
        fill-rule: evenodd;
      }

      .st3, .st2 {
        fill: #e57200;
      }

      .st4 {
        fill: #fff;
        stroke: #000;
        stroke-miterlimit: 10;
        stroke-width: .348px;
      }
    </style>
  </defs>
  <g id="Layer_1" focusable="false">
    <rect class="st4" x=".174" y=".174" width="125" height="161"/>
    <g>
      <rect class="st0" x="16.538" y="99.943" width="92.272" height=".499"/>
      <g>
        <path class="st0" d="M29.156,121.798c.041.041.041.083.041.207-.083.124-.911,3.56-1.035,4.119-.538-.021-6.499-.062-8.611-.062-1.863,0-2.608.062-2.857.062-.166,0-.166-.041-.166-.186v-.476c0-.124,0-.166.124-.166h.828c.745,0,.869-.29.869-.559,0-.373.083-5.547.083-6.789v-1.159c0-1.325-.041-3.519-.083-3.871-.041-.538-.124-.745-.662-.745h-.869c-.124,0-.166-.124-.166-.186v-.476c0-.124.041-.166.166-.166.207,0,.952.062,2.856.062,2.235,0,3.105-.062,3.27-.062s.207.083.207.186v.476c0,.083-.041.166-.207.166h-1.118c-.621,0-.704.207-.704.766,0,.29-.083,3.395-.083,4.844v1.78c0,.373,0,4.844.083,5.734h1.159c1.159,0,2.649,0,3.477-.103,1.159-.166,2.484-2.649,2.774-3.436.083-.083.124-.124.249-.083l.372.124Z"/>
        <path class="st0" d="M34.445,119.356c0,.207.041,4.967.041,5.195,0,.662.331.745.828.745h.87c.083,0,.166.041.166.145v.518c0,.124-.083.166-.207.166-.249,0-1.076-.062-3.022-.062-2.07,0-2.98.062-3.188.062-.124,0-.166-.041-.166-.145v-.559c0-.083.041-.124.166-.124h.828c.414,0,.869-.041.952-.6.041-.29.083-4.761.083-5.878v-1.449c0-.497-.041-4.223-.062-4.492-.062-.497-.269-.704-.849-.704h-1.076c-.124,0-.166-.041-.166-.145v-.538c0-.103.041-.145.124-.145.248,0,1.325.062,3.353.062,1.987,0,2.649-.062,2.939-.062.124,0,.166.083.166.186v.476c0,.124-.083.166-.166.166h-.787c-.455,0-.786.166-.786.559,0,.207-.041,4.761-.041,5.009v1.615Z"/>
        <path class="st0" d="M40.009,117.037c0-.745-.041-3.27-.062-3.622-.062-1.201-.393-1.242-1.18-1.242h-.662c-.124,0-.166-.041-.166-.166v-.476c0-.124.041-.186.166-.186.29,0,1.283.083,3.022.062.662,0,1.904-.062,3.022-.062,1.573,0,2.898.145,3.643.559,1.159.621,1.573,1.573,1.573,2.815,0,1.656-.869,2.649-2.815,3.374v.103c2.36.621,3.726,1.863,3.726,4.057,0,1.118-.621,2.608-1.615,3.146-.869.497-2.194.724-4.512.724-.828,0-2.194-.062-3.022-.062-1.615,0-2.484.062-2.919.062-.083,0-.145-.062-.145-.166v-.518c0-.103.062-.145.145-.145h.89c.621,0,.766-.249.828-.89.041-.497.083-3.229.083-4.926v-2.443ZM42.535,117.907c.331.021.621.021.952.021.911,0,1.739-.228,2.194-.6.786-.621,1.076-1.532,1.076-2.443,0-.786-.248-1.614-.911-2.111-.745-.538-1.739-.724-2.36-.724-.207,0-.455,0-.621.041-.124.041-.248.166-.269.331-.021.393-.062,2.174-.062,3.912v1.573ZM44.315,125.462c1.614,0,3.105-.766,3.105-3.291,0-1.697-.828-2.774-1.987-3.229-.786-.331-1.656-.372-2.359-.372h-.538v4.14c0,1.946.455,2.753,1.78,2.753Z"/>
        <path class="st0" d="M80.766,125.296h-.663c-.414,0-.952-.249-1.325-.952-.29-.559-1.614-4.409-2.112-6.023-.372-1.325-1.987-5.961-2.359-7.245-.041-.124-.124-.372-.249-.372-.103,0-.186.083-.31.207-.248.249-1.387.869-2.049,1.035-.165.041-.207.124-.207.207,0,.062.062.186.124.248.124.124,0,.497-.041.704l-2.029,5.423c-.621,1.738-2.111,5.464-2.318,5.837-.372.642-.985.933-1.626.933s-.982-.212-1.218-.353-1.635-2.153-1.759-2.359c-.165-.249-1.449-2.194-1.697-2.525-.29-.373-.663-.745-1.242-.952v-.083c2.276-.372,3.85-1.449,3.85-4.057,0-.786-.373-1.656-1.118-2.318-.828-.745-2.112-1.304-3.767-1.304-.621,0-2.525.062-3.684.062-2.028,0-2.691-.062-2.836-.062-.103,0-.145.041-.145.145v.559c0,.083.041.124.145.124h.807c.372,0,.662.331.662,1.035v5.444c0,1.946,0,3.891-.041,5.961,0,.559-.331.683-.787.683h-.703c-.083,0-.124.062-.124.165v.476c0,.124.041.186.165.186.207,0,.703-.062,2.732-.062,2.153,0,2.567.062,2.836.062.165,0,.228-.041.228-.186v-.497c0-.083-.041-.145-.165-.145h-1.035c-.331,0-.476-.373-.538-.786-.041-.311-.083-2.629-.083-3.871v-1.118c.228-.021.579-.041.662-.041.87,0,1.345.559,1.863,1.283.331.455.91,1.407,1.118,1.78.186.331.993,1.821,1.366,2.401.269.435.662.994.91,1.18.456-.021,1.242-.062,1.822-.062h3.734c1.449,0,2.318.062,2.608.062.124,0,.165-.083.165-.207v-.518c0-.062-.041-.103-.207-.103h-.87c-.414,0-.745-.228-.745-.497,0-.103,0-.269.041-.435.103-.559,1.118-3.519,1.283-3.995h4.802c.248.766,1.076,3.416,1.242,4.161.124.559-.041.766-.621.766h-.538c-.124,0-.165.041-.165.165v.414c0,.124.041.248.207.248.455,0,1.159-.062,2.898-.062,2.277,0,2.691.062,3.064.062.166,0,.207-.124.207-.248v-.435c0-.103-.041-.145-.166-.145ZM56.913,118.859c-.249,0-.497-.041-.787-.083l.041-5.961c0-.248.083-.497.248-.6.165-.103.414-.124.745-.124,1.035,0,1.987.228,2.732.89.517.476.91,1.366.91,2.318s-.662,3.56-3.891,3.56ZM70.127,119.542c.145-.476,2.007-5.568,2.09-5.837.062-.186.145-.269.269-.269.083,0,.124.124.207.373.125.414,1.532,5.133,1.739,5.733h-4.305Z"/>
        <g>
          <path class="st0" d="M85.785,120.639c0,1.242.041,3.56.083,3.871.062.414.207.786.538.786h1.035c.124,0,.166.062.166.145v.497c0,.145-.062.186-.228.186-.269,0-.683-.062-2.836-.062-2.029,0-2.525.062-2.732.062-.124,0-.166-.062-.166-.186v-.476c0-.103.041-.166.124-.166h.703c.456,0,.787-.124.787-.683.041-2.07.041-4.015.041-5.961v-5.444c0-.704-.29-1.035-.662-1.035h-.807c-.103,0-.145-.041-.145-.124v-.559c0-.103.041-.145.145-.145.145,0,.807.062,2.836.062,1.159,0,3.063-.062,3.684-.062,1.656,0,2.939.559,3.767,1.304.745.662,1.118,1.532,1.118,2.318,0,2.608-1.574,3.684-3.85,4.057v.083c.579.207.952.579,1.242.952.248.331,1.532,2.277,1.697,2.525.124.207,1.449,2.07,1.759,2.359.393.352.973.393,1.47.393.124,0,.166.062.166.145v.435c0,.145-.041.207-.166.207-.166,0-.703-.062-2.028-.062-.58,0-1.366.041-1.822.062-.248-.186-.641-.745-.91-1.18-.373-.58-1.18-2.07-1.366-2.401-.208-.373-.787-1.325-1.118-1.78-.518-.724-.994-1.283-1.863-1.283-.083,0-.434.021-.662.041v1.118ZM85.827,118.776c.29.041.538.083.787.083,3.229,0,3.891-2.608,3.891-3.56s-.393-1.842-.91-2.318c-.745-.662-1.697-.89-2.732-.89-.332,0-.58.021-.745.124s-.248.352-.248.6l-.041,5.961Z"/>
          <path class="st0" d="M102.527,122.212c0,.786.041,2.153.062,2.38.062.662.393.704.807.704h.683c.103,0,.145.062.145.145v.476c0,.145-.041.207-.145.207-.228,0-1.056-.062-2.918-.062-2.029,0-2.691.062-2.878.062-.103,0-.145-.083-.145-.186v-.476c0-.083.041-.166.145-.166h.849c.538,0,.704-.207.725-.518.021-.29.062-1.904.062-3.85v-.993c-.332-.621-3.684-6.582-4.264-7.307-.248-.29-.703-.455-1.034-.455h-.373c-.124,0-.166-.041-.166-.145v-.559c0-.083.041-.124.166-.124.166,0,1.159.062,2.732.062,2.112,0,2.857-.062,3.064-.062.124,0,.166.041.166.145v.476c0,.124-.041.207-.166.207h-.539c-.455,0-.621.166-.579.6.041.372,2.525,4.967,3.084,6.127.704-1.159,3.374-5.464,3.416-5.982.041-.372-.083-.745-.704-.745h-.538c-.124,0-.166-.062-.166-.166v-.518c0-.103.041-.145.124-.145.207,0,1.076.062,2.525.062,1.325,0,1.78-.062,1.987-.062.124,0,.166.041.166.145v.476c0,.124-.041.207-.166.207h-.455c-.29,0-.787.124-1.118.476-.331.372-3.767,5.671-4.553,7.037v2.525Z"/>
        </g>
      </g>
      <g>
        <g>
          <rect class="st3" x="67.758" y="47.514" width="2.257" height="10.747"/>
          <rect class="st3" x="55.573" y="47.514" width="2.185" height="10.747"/>
          <rect class="st3" x="58.51" y="47.514" width="2.33" height="10.747"/>
          <rect class="st3" x="61.593" y="47.514" width="2.33" height="10.747"/>
          <rect class="st3" x="64.675" y="47.514" width="2.33" height="10.747"/>
          <polygon class="st3" points="69.045 46.755 56.494 46.755 62.936 42.791 69.045 46.755"/>
          <polygon class="st3" points="55.048 46.755 49.671 46.755 49.671 42.75 61.557 42.75 55.048 46.755"/>
          <polygon class="st3" points="64.265 42.75 75.846 42.75 75.846 46.755 70.436 46.755 64.265 42.75"/>
          <path class="st3" d="M74.188,41.991h-22.86c2.238-4.038,6.518-6.767,11.429-6.767s9.191,2.729,11.43,6.767Z"/>
          <path class="st2" d="M51.432,55.198l-.197.602.512-.372.512.372-.196-.602.512-.372h-.633l-.196-.602-.196.602h-.633s.513.372.513.372ZM49.668,51.781l.513.372-.197.602.512-.372.512.372-.196-.602.512-.372h-.633l-.196-.602-.196.602h-.633ZM54.821,58.261h-.692l-.194-.598.512-.372h-.633l-.196-.602-.196.602h-.633l.513.372-.195.598h-3.437l-.003-6.48.003-2.336.48-.349.512.372-.196-.602.512-.372h-.633l-.196-.602-.089.274-.123.328h-.268v-.979h5.15v10.747ZM54.125,58.261h-1.013l.506-.368.506.368ZM49.671,49.37v-.624l.151.109-.109.335-.041.18Z"/>
          <rect class="st3" x="49.671" y="59.02" width="5.15" height="2.853"/>
          <rect class="st3" x="70.767" y="59.02" width="5.079" height="2.853"/>
          <path class="st2" d="M66.288,61.034l.513-.372h-.633l-.196-.602-.196.602h-.633l.512.372-.196.602.512-.372.512.372-.197-.602ZM62.464,61.434l-.143.439h-6.747v-2.853h.832l-.145.446h-.633l.513.372-.197.602.512-.372.512.372-.196-.602.512-.372h-.633l-.145-.446h12.538l-.145.446h-.633l.512.372-.196.602.512-.372.512.372-.197-.602.513-.372h-.633l-.145-.446h.869v2.853h-6.777l-.143-.439.512-.372h-.633l-.196-.602-.196.602h-.633l.513.372ZM59.171,61.034l-.197.602.512-.372.512.372-.196-.602.512-.372h-.633l-.196-.602-.196.602h-.633l.513.372ZM63.07,61.873h-.579l.288-.209.291.209Z"/>
          <path class="st2" d="M74.119,55.198l.513-.372h-.633s-.196-.602-.196-.602l-.196.602h-.633l.512.372-.196.602.512-.372.512.372-.197-.602ZM72.443,58.261l-.195-.598.513-.372h-.633l-.196-.602-.196.602h-.633l.512.372-.194.598.511-.368.506.368h.004ZM75.846,58.261h-5.079v-10.747h5.079v.979h-.25l-.196-.602-.196.602h-.633l.512.372-.196.602.512-.372.445.324v2.362h-.595s-.196-.602-.196-.602l-.196.602h-.633l.512.372-.196.602.512-.372.512.372-.197-.602.476-.345v6.453ZM75.846,48.771v.493l-.13-.398.13-.094Z"/>
        </g>
        <g>
          <path class="st1" d="M23.848,77.539c1.757,0,2.989-.464,3.796-1.212,1.131-.969,1.575-2.241,1.696-3.897.061-.788.101-4.321.101-4.604s0-3.15.04-3.352c.061-.242.121-.808.868-.808h.828c.101,0,.121-.081.121-.202v-.444c0-.061-.02-.141-.202-.141-.182,0-.828.061-2.221.061-1.353,0-2.282-.061-2.484-.061-.121,0-.141.04-.141.141v.485c0,.101.02.162.141.162h.889c.525,0,.848.363.909.888.061.505.101,1.676.101,3.211v4.321c0,1.494-.263,2.706-1.05,3.554-.707.727-1.878,1.111-3.029,1.111-1.171,0-2.463-.363-3.211-1.454-.464-.687-.626-1.636-.646-2.565-.02-.646-.101-3.211-.101-4.281v-1.333c0-1.03.02-2.443.04-2.625.04-.444.384-.828.969-.828h1.01c.141,0,.162-.04.162-.141v-.525c0-.081-.02-.121-.182-.121-.222,0-1.191.061-2.766.061s-2.565-.061-2.766-.061c-.162,0-.182.04-.182.162v.444c0,.141.02.182.141.182h.949c.626,0,.767.323.767,1.03v4.806c0,2.645.081,3.998.323,4.907.323,1.272,1.03,2.161,2.403,2.706.666.283,1.676.424,2.726.424Z"/>
          <path class="st1" d="M40.427,70.576c0-.9-.044-2.282.066-3.291.044-.307.154-.461.702-.461h.219c.088,0,.132-.066.132-.154v-.461c0-.132-.044-.176-.154-.176-.154,0-.921.066-1.382.066-.702,0-1.645-.066-1.799-.066-.11,0-.154.044-.154.11v.527c0,.11.044.154.154.154h.373c.373,0,.702.132.812.395.11.263.176,1.536.176,2.062.044.702.066,1.382.066,2.633v1.448h-.088c-.263-.285-2.304-2.852-2.698-3.313-.461-.548-2.984-3.73-3.05-3.817-.088-.132-.219-.176-.527-.176-.263,0-.724.044-1.075.044-.241,0-.592-.022-.878-.044-.285,0-.527-.022-.57-.022-.088,0-.132.066-.132.132v.527c0,.088.044.132.132.132h.197c.614,0,1.163.373,1.163,1.163v2.304c0,2.479-.044,4.037-.066,4.3-.066.505-.417.658-.636.658h-.505c-.066,0-.088.022-.088.066v.57c0,.11.022.154.066.154.176,0,1.163-.066,1.47-.066.636,0,1.514.066,1.667.066.11,0,.11-.044.11-.132v-.527c0-.088,0-.132-.11-.132h-.461c-.219,0-.461-.241-.527-.746-.044-.197-.132-2.391-.132-3.708v-3.006h.044c.351.395,2.128,2.764,2.655,3.379.241.285,1.185,1.404,2.194,2.611.9,1.075,1.645,1.975,1.799,2.128.088.066.307.219.505.219.263,0,.329-.219.329-.417v-5.134Z"/>
          <path class="st1" d="M45.636,70.357c0-.154.022-2.764.022-2.984.022-.461.219-.548.812-.548h.373c.11,0,.132-.066.132-.154v-.527c0-.066-.044-.11-.132-.11-.176,0-1.294.066-1.931.066-1.031.022-2.391-.066-2.523-.066-.088,0-.132.044-.132.132v.505c0,.088.022.154.132.154h.395c.921,0,1.119.219,1.119.461,0,.307.044,2.501.044,2.852v.965c0,.746-.022,3.532-.044,3.73-.044.395-.395.417-.943.417h-.483c-.088,0-.132.066-.132.132v.483c0,.11.044.175.132.175.132,0,1.404-.066,2.15-.066.987,0,2.128.066,2.304.066.11,0,.132-.066.132-.154v-.527c0-.066-.022-.11-.132-.11h-.329c-.636,0-.9-.307-.943-.812-.022-.329-.022-2.852-.022-2.984v-1.097Z"/>
          <path class="st1" d="M67.878,70.971c-.022,1.338,0,2.633-.022,3.708,0,.483-.263.57-.79.57h-.263c-.088,0-.132.044-.132.11v.505c0,.11.044.175.132.175.154,0,1.272-.066,1.821-.066.724,0,1.909.066,2.062.066.132,0,.176-.044.176-.154v-.527c0-.066-.044-.11-.132-.11h-.57c-.439,0-.57-.241-.614-.549v-2.896c.154-.044.351-.044.57-.044.921,0,1.251.483,2.04,1.843.197.329,1.163,2.106,1.58,2.413.373-.022.9-.044,1.404-.044.219,0,.483.022.68.022.219.022.395.044.439.044.088,0,.132-.066.132-.154v-.439c0-.132-.022-.197-.11-.197-.395,0-.68-.022-.987-.241-.417-.307-.921-.965-1.229-1.404-.9-1.272-1.338-1.953-1.843-2.062v-.044c1.733-.614,2.589-1.492,2.589-3.006,0-.505-.285-1.141-.768-1.602-.548-.483-1.536-.856-2.852-.856-.285,0-2.194.066-2.457.066-.395,0-1.755-.066-1.865-.066-.088,0-.132.044-.132.11v.527c0,.088.022.154.088.154h.219c.614,0,.812.241.834.68v3.466ZM69.546,67.22c0-.395.329-.483.658-.483.878,0,1.492.197,2.084.57.395.263.724.856.724,1.514,0,.57-.373,2.282-2.808,2.282-.285,0-.505-.022-.658-.044v-3.839Z"/>
          <path class="st1" d="M80.106,76.237c1.996,0,3.05-1.404,3.05-3.05,0-1.097-.263-1.645-.702-2.106-.548-.57-1.36-.812-2.369-1.185-.417-.154-1.207-.483-1.536-.9-.241-.285-.351-.746-.351-1.075,0-.395.351-1.338,1.558-1.338.636,0,1.119.219,1.448.592.461.527.636,1.294.768,1.558.022.066.066.11.132.088l.395-.088c.066-.022.088-.066.088-.132-.022-.307-.219-1.733-.219-2.457,0-.11-.022-.197-.197-.197s-.241,0-.285.066l-.088.154c-.044.11-.154.088-.373-.044-.263-.132-.724-.285-1.558-.285-.79,0-1.492.197-2.062.658-.483.417-.943,1.097-.943,1.843,0,1.075.263,1.777.768,2.26.658.592,1.711.987,2.15,1.141,1.163.439,2.018.987,2.018,2.238,0,.943-1.053,1.492-1.755,1.492-.812,0-1.536-.439-1.865-1.097-.395-.724-.395-1.185-.395-1.492,0-.088-.088-.132-.176-.154l-.395-.044c-.088,0-.132.066-.154.154-.022.351-.176,2.106-.241,2.72-.022.11.044.197.176.241.176.044.285,0,.329-.11l.066-.176c.044-.176.176-.154.329-.044.505.395,1.272.768,2.391.768Z"/>
          <path class="st1" d="M86.872,70.357c0-.154.022-2.764.022-2.984.022-.461.219-.548.812-.548h.373c.11,0,.132-.066.132-.154v-.527c0-.066-.044-.11-.132-.11-.176,0-1.294.066-1.931.066-1.031.022-2.391-.066-2.523-.066-.088,0-.132.044-.132.132v.505c0,.088.022.154.132.154h.395c.921,0,1.119.219,1.119.461,0,.307.044,2.501.044,2.852v.965c0,.746-.022,3.532-.044,3.73-.044.395-.395.417-.943.417h-.483c-.088,0-.132.066-.132.132v.483c0,.11.044.175.132.175.132,0,1.404-.066,2.15-.066.987,0,2.128.066,2.304.066.11,0,.132-.066.132-.154v-.527c0-.066-.022-.11-.132-.11h-.329c-.636,0-.899-.307-.943-.812-.022-.329-.022-2.852-.022-2.984v-1.097Z"/>
          <path class="st1" d="M28.049,83.005c2.013,0,3.221-2.763,3.221-4.29,0-.944-.555-1.624-1.486-1.624-1.847,0-3.166,2.374-3.166,4.124,0,1.055.666,1.791,1.43,1.791ZM27.841,82.339c-.333,0-.639-.264-.639-.708,0-.653.333-1.499.805-2.249.694-1.125,1.43-1.652,2.013-1.652.458,0,.708.347.694.777,0,.916-1.43,3.832-2.874,3.832Z"/>
          <path class="st1" d="M50.921,83.357c0-.154.022-2.764.022-2.984.022-.461.219-.548.812-.548h.373c.11,0,.132-.066.132-.154v-.527c0-.066-.044-.11-.132-.11-.175,0-1.294.066-1.931.066-1.031.022-2.391-.066-2.523-.066-.088,0-.132.044-.132.132v.505c0,.088.022.154.132.154h.395c.921,0,1.119.219,1.119.461,0,.307.044,2.501.044,2.852v.965c0,.746-.022,3.532-.044,3.73-.044.395-.395.417-.943.417h-.483c-.088,0-.132.066-.132.132v.483c0,.11.044.176.132.176.132,0,1.404-.066,2.15-.066.987,0,2.128.066,2.304.066.11,0,.132-.066.132-.154v-.527c0-.066-.022-.11-.132-.11h-.329c-.636,0-.899-.307-.943-.812-.022-.329-.022-2.852-.022-2.984v-1.097Z"/>
          <path class="st1" d="M54.111,83.972c-.022,1.338,0,2.633-.022,3.708,0,.483-.263.57-.79.57h-.263c-.088,0-.132.044-.132.11v.505c0,.11.044.176.132.176.154,0,1.272-.066,1.821-.066.724,0,1.909.066,2.062.066.132,0,.176-.044.176-.154v-.527c0-.066-.044-.11-.132-.11h-.57c-.439,0-.57-.241-.614-.548v-2.896c.154-.044.351-.044.57-.044.921,0,1.251.483,2.04,1.843.197.329,1.163,2.106,1.58,2.413.373-.022.9-.044,1.404-.044.219,0,.483.022.68.022.219.022.395.044.439.044.088,0,.132-.066.132-.154v-.439c0-.132-.022-.197-.11-.197-.395,0-.68-.022-.987-.241-.417-.307-.921-.965-1.229-1.404-.899-1.272-1.338-1.953-1.843-2.062v-.044c1.733-.614,2.589-1.492,2.589-3.006,0-.505-.285-1.141-.768-1.602-.548-.483-1.536-.856-2.852-.856-.285,0-2.194.066-2.457.066-.395,0-1.755-.066-1.865-.066-.088,0-.132.044-.132.11v.527c0,.088.022.154.088.154h.219c.614,0,.812.241.834.68v3.466ZM55.904,80.22c0-.395.329-.483.658-.483.878,0,1.492.197,2.084.57.395.263.724.856.724,1.514,0,.57-.373,2.282-2.808,2.282-.285,0-.505-.022-.658-.044v-3.839Z"/>
          <path class="st1" d="M70.839,85.99c0-.373.417-.461.636-.461h.373c.066,0,.11-.066.11-.132v-.527c0-.066-.044-.11-.132-.11s-1.075.044-1.887.044c-1.185,0-2.26-.044-2.391-.044-.088,0-.11.044-.11.11v.527c0,.066.022.11.11.11h.527c.57,0,1.075.154,1.075.658v.812c0,.439-.044.724-.329.943-.351.285-1.053.483-1.821.483-.614,0-1.492-.329-2.106-.987-.856-.9-1.338-2.15-1.338-3.839,0-.987.483-2.15,1.141-2.874.812-.878,1.667-1.119,2.347-1.119,1.009,0,1.624.439,2.216,1.053.527.527.9,1.207,1.053,1.558.066.176.11.197.175.176l.417-.132c.066-.022.088-.066.088-.176-.044-.395-.329-2.435-.329-2.545,0-.154-.044-.241-.241-.241-.176,0-.241.066-.285.154l-.11.197c-.044.066-.132.066-.307-.088-.417-.307-1.448-.702-2.501-.702-1.558,0-2.896.461-3.927,1.338-1.053.921-1.624,2.26-1.624,3.598,0,1.711.439,2.896,1.316,3.861,1.031,1.141,2.786,1.602,3.927,1.602,1.404,0,2.589-.307,3.752-.878.154-.066.241-.132.241-.241s-.066-.241-.066-.439v-1.689Z"/>
          <path class="st1" d="M74.861,83.357c0-.154.022-2.764.022-2.984.022-.461.219-.548.812-.548h.373c.11,0,.132-.066.132-.154v-.527c0-.066-.044-.11-.132-.11-.176,0-1.294.066-1.931.066-1.031.022-2.391-.066-2.523-.066-.088,0-.132.044-.132.132v.505c0,.088.022.154.132.154h.395c.921,0,1.119.219,1.119.461,0,.307.044,2.501.044,2.852v.965c0,.746-.022,3.532-.044,3.73-.044.395-.395.417-.943.417h-.483c-.088,0-.132.066-.132.132v.483c0,.11.044.176.132.176.132,0,1.404-.066,2.15-.066.987,0,2.128.066,2.304.066.11,0,.132-.066.132-.154v-.527c0-.066-.022-.11-.132-.11h-.329c-.636,0-.9-.307-.943-.812-.022-.329-.022-2.852-.022-2.984v-1.097Z"/>
          <path class="st1" d="M86.718,83.577c0-.9-.044-2.282.066-3.291.044-.307.154-.461.702-.461h.219c.088,0,.132-.066.132-.154v-.461c0-.132-.044-.176-.154-.176-.154,0-.921.066-1.382.066-.702,0-1.645-.066-1.799-.066-.11,0-.154.044-.154.11v.527c0,.11.044.154.154.154h.373c.373,0,.702.132.812.395.11.263.176,1.536.176,2.062.044.702.066,1.382.066,2.633v1.448h-.088c-.263-.285-2.304-2.852-2.698-3.313-.461-.548-2.984-3.73-3.05-3.817-.088-.132-.219-.175-.527-.175-.263,0-.724.044-1.075.044-.241,0-.592-.022-.878-.044-.285,0-.527-.022-.57-.022-.088,0-.132.066-.132.132v.527c0,.088.044.132.132.132h.197c.614,0,1.163.373,1.163,1.163v2.304c0,2.479-.044,4.037-.066,4.3-.066.505-.417.658-.636.658h-.505c-.066,0-.088.022-.088.066v.57c0,.11.022.154.066.154.176,0,1.163-.066,1.47-.066.636,0,1.514.066,1.667.066.11,0,.11-.044.11-.132v-.527c0-.088,0-.132-.11-.132h-.461c-.219,0-.461-.241-.527-.746-.044-.197-.132-2.391-.132-3.708v-3.006h.044c.351.395,2.128,2.764,2.655,3.379.241.285,1.185,1.404,2.194,2.611.9,1.075,1.645,1.974,1.799,2.128.088.066.307.219.505.219.263,0,.329-.219.329-.417v-5.134Z"/>
          <path class="st0" d="M32.82,77.84h-1.236c-.069,0-.103-.068-.076-.165l.056-.236c.028-.097.124-.32.235-.32h1.208c.417-1.194.82-2.166,1.556-2.985.389-.444,1.152-.944,2.055-.944.805,0,1.25.486,1.25.819,0,.43-.278.639-.555.639-.444,0-.569-.25-.611-.555-.014-.139-.153-.403-.569-.403-1.291,0-1.57,1.834-2.028,3.389,0,0,1.93.052,3.505.052,1.696,0,2.605-.061,2.787-.061.182,0,.202.061.202.141v.464c0,.101-.02.182-.162.182h-.969c-.565,0-.848.182-.848.525,0,.162.02.404.081.687.121.727.868,3.13,1.232,4.261.242.767,1.414,4.24,1.878,5.472.464-.949,2.039-5.109,2.201-5.573.202-.545.969-2.867,1.272-3.756.162-.505.283-.868.283-1.151,0-.242-.141-.464-.646-.464h-.525c-.081,0-.101-.061-.101-.182v-.464c0-.101.02-.141.121-.141.182,0,1.111.061,2.383.061,1.474,0,1.979-.061,2.161-.061.121,0,.141.04.141.141v.505c0,.081-.02.141-.141.141h-.545c-.666,0-1.05.323-1.434.787-.525.646-2.14,4.786-2.484,5.634-.242.666-2.847,7.088-2.948,7.29-.081.162-.182.262-.283.262-.162,0-.242-.202-.343-.464-.646-1.858-2.282-6.462-2.544-7.189l-.202-.687c-.485-1.434-1.434-4.362-1.696-4.967-.202-.464-.404-.666-.828-.666l-1.878-.018c-.361,1.125-1,3.5-1.694,5.278-.847,2.166-1.833,3.707-3.318,3.707-.555,0-1-.375-1-.819,0-.319.236-.597.597-.597.403,0,.611.389.653.625.028.139.125.236.236.236.666,0,1.416-1.166,2.166-3.735l1.409-4.694Z"/>
          <path class="st0" d="M89.291,66.002c.027-.019.019-.02.085-.012.342.038,1.587.155,3.997.155h.878c.717,0,1.489-.029,2.325-.064.42-.012,2.997.02,3.524.02.483,0,1.974-.066,2.128-.066.088,0,.154.044.154.154v.483c0,.088-.022.154-.154.154h-.329c-.395,0-.417.241-.329.373.132.197,1.953,3.115,2.304,3.642.329-.548,2.15-3.203,2.238-3.379.175-.351.197-.636-.285-.636h-.351c-.11,0-.154-.066-.154-.154v-.483c0-.088.044-.154.154-.154.132,0,1.229.066,1.887.066.395,0,1.163-.066,1.294-.066.11,0,.154.044.154.176v.461c0,.11-.044.154-.132.154h-.219c-.351,0-.592.066-.79.176-.329.176-2.874,3.752-3.379,4.519v1.843c.022.548,0,1.141.044,1.404.044.461.395.483.79.483h.285c.11,0,.154.044.154.11v.527c0,.088-.044.154-.176.154s-1.36-.066-2.084-.066c-.483,0-1.755.066-1.887.066-.11,0-.154-.044-.154-.175v-.483c0-.066.044-.132.132-.132h.329c.702,0,.834-.132.856-.439.022-.197.022-.987.022-2.282v-.79c-.197-.395-2.874-4.322-3.225-4.651-.186-.186-.497-.246-.695-.26.13.595.307,1.374.377,1.752.022.088-.022.132-.11.176l-.373.11c-.132.044-.197.022-.241-.088-.263-.548-.636-1.272-1.097-1.689-.548-.197-2.153-.219-2.548-.219v3.686c0,2.304,0,3.949.022,4.125.044.351.154.57.505.57h.834c.11,0,.154.066.154.197v.461c0,.066-.044.132-.154.132-.154,0-1.514-.066-2.238-.066-.614,0-2.04.066-2.216.066-.132,0-.176-.066-.176-.197v-.439c0-.11.044-.154.132-.154h.878c.329,0,.483-.176.505-.351.066-.834.066-1.996.066-3.313v-4.717c-.417,0-1.649-.022-2.461.197-.548.417-1.009,1.119-1.294,1.689-.044.088-.11.154-.197.11l-.395-.154c-.11-.044-.11-.132-.088-.219.127-.399.508-1.751.686-2.415.009-.035.013-.056.04-.075Z"/>
          <path class="st0" d="M96.481,84.476h2.984c-.088-.307-1.119-3.598-1.163-3.774-.044-.132-.066-.219-.132-.219s-.11.066-.176.241-1.404,3.532-1.514,3.752ZM91.928,83.357v1.097c0,.132,0,2.655.022,2.984.044.505.307.812.943.812h.253c.373,0,.724-.219.9-.461.154-.176,1.272-2.808,1.799-3.905.154-.307,1.448-3.291,1.58-3.664.044-.132.176-.373.022-.439-.044-.044-.11-.154-.088-.219-.022-.044.022-.11.219-.154.417-.066,1.031-.461,1.229-.636.044-.088.132-.154.263-.154s.176.088.219.241c.307.878,1.426,4.015,1.711,4.892.329,1.097,1.272,3.686,1.426,3.905.285.395.658.592,1.031.592h.417c.088,0,.11.066.11.132v.461c0,.066-.022.197-.154.197-.263,0-1.426-.066-1.931-.066-.417,0-1.711.066-1.996.066-.154,0-.176-.11-.176-.197v-.461c0-.066.022-.132.11-.132h.351c.263,0,.351-.197.351-.373-.088-.439-.68-2.194-.856-2.699h-3.532c-.088.263-.79,2.084-.878,2.347-.132.439-.066.724.395.724h.548c.132,0,.154.066.154.154v.483c0,.088-.022.154-.132.154-.176,0-1.338-.066-1.689-.066h-3.632c-.746,0-2.018.066-2.15.066-.088,0-.132-.066-.132-.176v-.483c0-.066.044-.132.132-.132h.483c.548,0,.9-.022.943-.417.022-.197.044-2.984.044-3.73v-.965c0-.351-.044-2.545-.044-2.852,0-.241-.197-.461-1.119-.461h-.395c-.11,0-.132-.066-.132-.154v-.505c0-.088.044-.132.132-.132.132,0,1.492.088,2.523.066.636,0,1.755-.066,1.931-.066.088,0,.132.044.132.11v.527c0,.088-.022.154-.132.154h-.373c-.592,0-.79.088-.812.548,0,.219-.022,2.83-.022,2.984Z"/>
          <path class="st0" d="M51.877,66.188v.505c0,.088-.066.132-.154.132h-.505c-.285,0-.614.044-.614.329,0,.505.373,1.36.965,3.203.176.548.987,3.093,1.119,3.444h.066c.132-.461,1.207-3.181,1.316-3.51.834-2.435,1.119-3.028,1.119-3.247,0-.11-.088-.219-.461-.219h-.241c-.088,0-.132-.044-.132-.154v-.505c0-.066.044-.132.132-.132.132,0,1.272.066,1.777.066h3.354l4.914-.022c.219,0,.505-.044.592-.044.044,0,.088.044.132.307.044.197.658,2.084.702,2.238.022.088.022.132-.022.154l-.351.154c-.044.022-.132.022-.197-.088-.044-.066-1.097-1.294-1.47-1.645-.263-.241-.614-.329-.834-.329l-2.326-.044v3.73c.132,0,1.426-.066,1.602-.11.57-.154.79-.461.79-1.141,0-.088.022-.11.11-.11l.483.022c.088,0,.154.044.132.132-.044.197-.044,1.36-.044,1.558,0,.483.066,1.163.088,1.448,0,.088-.044.11-.11.11l-.461.044c-.066,0-.11,0-.132-.088-.11-.548-.241-.899-.812-1.031-.658-.154-1.426-.154-1.645-.154v.746c0,.768.044,2.04.044,2.326,0,1.031.636,1.097,1.58,1.097.965,0,1.58-.022,2.326-.614.176-.132.943-1.119,1.163-1.47.11-.154.219-.176.285-.132l.351.197c.044.022.088.088.066.154l-.79,2.326c-.044.11-.154.219-.241.219-.154,0-1.316-.066-5.924-.066-.395,0-1.602.066-1.865.066-.11,0-.132-.066-.132-.154v-.505c0-.088.044-.132.154-.132h.197c1.031,0,1.097-.088,1.097-.395v-4.673c0-1.163-.022-2.589-.044-2.808-.066-.461-.197-.548-1.075-.548h-.523c-.417,0-.724.132-.921.329-.417.417-1.602,3.291-1.821,3.861-.197.461-1.996,4.761-2.172,5.046-.066.11-.176.176-.351.176s-.285-.154-.351-.329c-.483-1.294-1.645-4.476-1.821-4.958l-.154-.483c-.373-1.009-1.031-3.006-1.185-3.225-.176-.241-.351-.417-.636-.417h-.219c-.088,0-.11-.066-.11-.132v-.548c0-.066.044-.11.132-.11.11,0,1.316.066,1.887.066.527,0,1.865-.066,1.996-.066s.176.044.176.154Z"/>
        </g>
      </g>
    </g>
  </g>
</svg>