<?xml version="1.0" encoding="UTF-8"?>
<svg id="svg1" xmlns="http://www.w3.org/2000/svg" xmlns:svg="http://www.w3.org/2000/svg" xmlns:sodipodi="http://sodipodi.sourceforge.net/DTD/sodipodi-0.dtd" xmlns:inkscape="http://www.inkscape.org/namespaces/inkscape" version="1.1" viewBox="0 0 21.793 22.185">
  <!-- Generator: Adobe Illustrator 29.6.1, SVG Export Plug-In . SVG Version: 2.1.1 Build 9)  -->
  <defs>
    <style>
      .st0, .st1 {
        fill: #e5691a;
      }

      .st1 {
        fill-rule: evenodd;
      }
    </style>
  </defs>
  <g id="uvaliblogo">
    <path id="path3" class="st0" d="M15.06,10.231h1.878v8.946h-1.878v-8.946"/>
    <path id="path4" class="st0" d="M4.916,10.231h1.819v8.946h-1.819v-8.946"/>
    <path id="path5" class="st0" d="M7.361,10.231h1.94v8.946h-1.94v-8.946"/>
    <path id="path6" class="st0" d="M9.928,10.231h1.94v8.946h-1.94v-8.946"/>
    <path id="path7" class="st0" d="M14.433,19.178h-1.94v-8.946h1.94v8.946"/>
    <path id="path8" class="st0" d="M16.132,9.599H5.682l5.364-3.3,5.086,3.3Z"/>
    <path id="path9" class="st0" d="M.002,6.266v3.334h4.477l5.419-3.334H.002"/>
    <path id="path10" class="st0" d="M12.152,6.266h9.641v3.333h-4.503l-5.137-3.333"/>
    <path id="path11" class="st0" d="M20.413,5.633H1.383C3.246,2.272,6.808,0,10.897,0s7.652,2.272,9.516,5.633"/>
    <path id="path12" class="st1" d="M.002,11.777v-.52l.125.091-.091.279-.035.15ZM3.711,19.178h-.844l.422-.307.422.307ZM4.29,19.178h-.576l-.161-.497.426-.31h-.527l-.163-.501-.163.501h-.527l.427.31-.162.497H.002l-.002-5.395.002-1.945.4-.29.426.309-.163-.501.426-.309h-.527l-.163-.501-.074.229-.102.273H.002v-.815h4.288v8.946ZM0,13.783l.427.309-.163.501.426-.309.426.309-.163-.501.427-.309h-.527l-.163-.501-.163.501h-.527ZM1.468,16.627l-.163.501.426-.309.427.309-.163-.501.426-.309h-.527l-.163-.501-.163.501h-.527l.427.309"/>
    <path id="path13" class="st0" d="M.002,22.185h4.288v-2.375H.002v2.375"/>
    <path id="path14" class="st1" d="M17.565,19.809h4.228v2.375h-4.228v-2.375"/>
    <path id="path15" class="st1" d="M11.158,22.185h-.482l.24-.174.243.174ZM7.911,21.486l-.164.501.427-.309.426.309-.163-.501.426-.309h-.527l-.163-.501-.163.501h-.527l.427.309ZM10.652,21.819l-.119.366h-5.617v-2.375h.693l-.12.372h-.527l.427.309-.164.501.427-.309.426.309-.162-.501.426-.309h-.527l-.121-.372h10.437l-.121.372h-.527l.426.309-.163.501.426-.309.426.309-.164-.501.427-.309h-.526l-.121-.372h.723v2.375h-5.641l-.119-.366.426-.309h-.527l-.163-.501-.163.501h-.527l.427.309ZM13.836,21.486l.427-.309h-.527l-.163-.501-.163.501h-.527l.427.309-.163.501.426-.309.426.309-.164-.501"/>
    <path id="path16" class="st1" d="M21.793,11.278v.41l-.108-.331.108-.079ZM21.793,19.177h-4.228v-8.946h4.228v.815h-.208l-.163-.501-.163.501h-.526l.426.31-.163.501.426-.309.371.269v1.966h-.495l-.163-.501-.163.501h-.527l.425.309-.163.501.427-.309.426.309-.163-.501.395-.286v5.371ZM18.96,19.177l-.162-.497.427-.309h-.527l-.163-.501-.163.501h-.527l.426.309-.162.497.425-.306.421.306h.004ZM20.356,16.627l.427-.31h-.527l-.163-.5-.163.5h-.527l.426.31-.163.501.427-.31.426.31-.163-.501"/>
  </g>
</svg>